<?xml version="1.0" encoding="UTF-8" standalone="no"?>
<svg
   xmlns:dc="http://purl.org/dc/elements/1.1/"
   xmlns:cc="http://creativecommons.org/ns#"
   xmlns:rdf="http://www.w3.org/1999/02/22-rdf-syntax-ns#"
   xmlns:svg="http://www.w3.org/2000/svg"
   xmlns="http://www.w3.org/2000/svg"
   xmlns:sodipodi="http://sodipodi.sourceforge.net/DTD/sodipodi-0.dtd"
   xmlns:inkscape="http://www.inkscape.org/namespaces/inkscape"
   width="46mm"
   height="52mm"
   viewBox="0 0 46 52"
   version="1.1"
   id="svg269"
   inkscape:version="1.0 (4035a4f, 2020-05-01)"
   sodipodi:docname="ubs_logo.svg">
  <defs
     id="defs263" />
  <sodipodi:namedview
     borderlayer="false"
     inkscape:pagecheckerboard="false"
     showborder="true"
     inkscape:showpageshadow="false"
     id="base"
     pagecolor="#ffffff"
     bordercolor="#666666"
     borderopacity="1.0"
     inkscape:pageopacity="0.0"
     inkscape:pageshadow="2"
     inkscape:zoom="0.35"
     inkscape:cx="400"
     inkscape:cy="560"
     inkscape:document-units="mm"
     inkscape:current-layer="layer1"
     inkscape:document-rotation="0"
     showgrid="false"
     inkscape:window-width="1440"
     inkscape:window-height="855"
     inkscape:window-x="0"
     inkscape:window-y="141"
     inkscape:window-maximized="0" />
  <metadata
     id="metadata266">
    <rdf:RDF>
      <cc:Work
         rdf:about="">
        <dc:format>image/svg+xml</dc:format>
        <dc:type
           rdf:resource="http://purl.org/dc/dcmitype/StillImage" />
        <dc:title></dc:title>
      </cc:Work>
    </rdf:RDF>
  </metadata>
  <g
     inkscape:label="Layer 1"
     inkscape:groupmode="layer"
     id="layer1">
    <path
       d="m 22.715722,2.5374368 c -0.16718,-10e-4 -0.34364,0.0251 -0.54431,0.0797 l -0.56848,0.15442 v 3.4146 h -1.47553 v -1.48953 h -1.32822 v 1.48953 h -1.47523 v -1.48953 h -1.32822 v 2.0268 c 0,1.56189 0.0423,2.00993 0.18439,1.95288 l 1.70012,-0.68632 c 0.83321,-0.33659 1.54723,-0.6121 1.58617,-0.6121 0.039,0 0.0707,0.26112 0.0707,0.58045 v 0.58014 l -1.6438,0.66407 -1.6439,0.66407 1.64299,0.6549702 1.6428,0.654669 9e-4,0.5586 c 7.1e-4,0.30734 -0.054,0.5586 -0.12117,0.5586 -0.0671,0 -0.54888,-0.17473 -1.06988,-0.38881 -0.52098,-0.21409 -1.26296,-0.51479 -1.64851,-0.66822 l -0.70109,-0.2793 v 4.0176 h 1.32811 v -1.48954 h 1.47554 v 1.48954 h 1.32822 v -1.48954 h 1.47553 v 3.79837 c 0,2.08931 -0.0392,3.79867 -0.087,3.79867 -0.0795,0 -1.24095,-0.93542 -5.96309,-4.80191 C 6.8179539,9.1277468 7.5459839,9.6055568 6.7791839,10.525427 c -0.61081,0.733119 -0.50206,0.988419 0.87914,2.066039 0.68246,0.53246 1.243778,1.01887 1.247598,1.0812 0.009,0.15056 -0.749348,1.00425 -0.891718,1.00425 -0.0616,0 -0.30909,-0.1676 -0.55035,-0.37233 -0.54895,-0.46629 -0.60912,-0.46031 -1.05294,0.10547 l -0.36214,0.46152 0.54653,0.4771 c 0.3005,0.26227 0.54651,0.52355 0.54651,0.58085 0,0.0573 -0.19398,0.31358 -0.43095,0.56962 l -0.43085,0.46557 -0.51841,-0.39913 c -0.28497,-0.21936 -0.57666,-0.39913 -0.64809,-0.39913 -0.11724,0 -0.77534,0.79874 -0.77534,0.94114 0,0.10837 2.96993,2.5154 3.02966,2.45546 0.0322,-0.0326 0.28544,-0.79048 0.56254,-1.6847 0.2771,-0.89398 0.56706,-1.64678 0.644458,-1.67267 0.0772,-0.0259 0.31015,0.0876 0.51751,0.2523 l 0.37714,0.29943 -0.50018,1.59106 c -0.27495,0.87504 -0.475888,1.6154 -0.446268,1.64536 0.0299,0.03 0.701398,-0.31547 1.4925581,-0.76762 l 1.43795,-0.82233 0.42642,0.30661 c 0.23457,0.16853 0.42642,0.35819 0.42642,0.42148 0,0.0633 -0.70014,0.50202 -1.55605,0.97502 -0.8558901,0.47324 -1.5361901,0.91409 -1.5123001,0.97978 0.0551,0.15223 2.8130201,2.37724 2.9470401,2.3782 0.14619,9.5e-4 0.71184,-0.75585 0.71065,-0.95076 -4.7e-4,-0.0911 -0.23123,-0.32438 -0.51287,-0.51785 -0.54703,-0.3759 -0.54249,-0.47011 0.0554,-1.17494 0.36643,-0.43177 0.42705,-0.42432 0.98412,0.12085 l 0.46612,0.45596 0.38933,-0.46749 c 0.4909,-0.58879 0.48735,-0.66053 -0.053,-1.06401 -0.54918,-0.40971 -0.55831,-0.70332 -0.0371,-1.20437 l 0.40586,-0.38983 3.09898,2.52372 c 1.70416,1.38808 3.09848,2.59369 3.09848,2.67904 0,0.0856 -1.42757,1.32436 -3.17233,2.75296 l -3.17274,2.59753 -0.60939,-0.70411 c -0.55754,-0.64394 -0.64376,-0.69195 -1.0078,-0.55769 -0.21882,0.0808 -0.50457,0.32583 -0.635,0.54494 -0.23052,0.38742 -0.22192,0.41619 0.32536,1.09082 0.80859,0.9961 0.51052,1.13202 -0.69414,0.31691 -1.52237,-1.03063 -2.4169901,-1.31138 -4.2405881,-1.33128 -1.26151,-0.0139 -1.71203,0.0439 -2.42389,0.31075 -3.92978,1.47295 -5.68983004,5.86545 -3.96178,9.88776 l 0.39317,0.91526 -0.54532,0.46224 c -0.29979004,0.25412 -0.54511004,0.54899 -0.54511004,0.65567 0,0.3915 0.45936,1.07351 0.86593004,1.28568 0.39534,0.20641 0.44475,0.19496 0.91964,-0.21499 0.2759,-0.23806 0.55206,-0.43562 0.61393,-0.43897 0.0619,-0.003 0.49332,0.2563 0.95913,0.5773 1.32602,0.9134 2.26528,1.23103 3.89348,1.31662 1.170028,0.0614 1.603568,0.0195 2.4348681,-0.23612 2.28749,-0.70315 3.95481,-2.38615 4.65138,-4.69482 0.25321,-0.8398 0.2958,-1.28924 0.24062,-2.54475 -0.0583,-1.32263 -0.12993,-1.66068 -0.53937,-2.54363 -0.34255,-0.73912 -0.42764,-1.06254 -0.30963,-1.1793 0.11724,-0.11555 0.3265,0.0346 0.74884,0.53707 0.53724,0.63914 0.62015,0.68539 0.99279,0.55425 0.22336,-0.0784 0.5129,-0.32533 0.64285,-0.54829 0.2298,-0.39341 0.22192,-0.42293 -0.26349,-1.00141 -0.27518,-0.32772 -0.50119,-0.65299 -0.50238,-0.72323 -0.001,-0.07 0.17993,-0.27124 0.40233,-0.44696 0.22239,-0.17573 1.48626,-1.20753 2.80868,-2.29306 1.32244,-1.08553 2.43519,-1.97371 2.47317,-1.97371 0.0375,0 0.0685,1.70615 0.0685,3.79139 v 3.79149 l -0.92225,0.0443 -0.92217,0.0444 v 1.48953 l 0.88528,0.0745 c 1.14136,0.0959 1.19248,0.40801 0.11271,0.68683 -2.23471,0.57728 -4.30092,2.35116 -5.0498,4.33522 -1.17122,3.10268 -0.27996,6.31944 2.32142,8.37639 0.70612,0.55859 2.21795,1.25549 3.09535,1.42714 0.47012,0.0921 0.47942,0.10953 0.47942,0.89706 0,0.77819 0.0151,0.80752 0.47972,0.94297 0.64497,0.18795 0.5964,0.18763 1.12146,0.003 0.43643,-0.15367 0.46491,-0.20809 0.46491,-0.89686 0,-0.81726 -0.0387,-0.78553 1.50183,-1.23551 1.60382,-0.46869 3.54344,-2.11571 4.27011,-3.62605 1.06707,-2.21758 0.92852,-5.01891 -0.3447,-6.96917 -1.05393,-1.61463 -2.37874,-2.59471 -4.23889,-3.13652 -1.39958,-0.40731 -1.49054,-0.7106 -0.23284,-0.77581 0.95503,-0.0496 1.10573,-0.16511 1.10573,-0.84812 0,-0.68277 -0.1507,-0.79859 -1.10573,-0.84821 l -0.88196,-0.0456 -0.0395,-3.7744 c -0.0265,-2.55368 0.01,-3.75789 0.11345,-3.72313 0.0838,0.0283 1.41273,1.08148 2.95277,2.34058 l 2.80012,2.28901 -0.29905,0.39124 c -0.72308,0.94529 -0.75968,1.02922 -0.59056,1.34807 0.0893,0.16854 0.37219,0.41589 0.62874,0.5499 0.51406,0.26827 0.41449,0.3304 1.31744,-0.82465 0.20926,-0.26755 0.32459,-0.3172 0.44809,-0.19254 0.12349,0.12466 0.0691,0.39051 -0.21089,1.03085 -0.71855,1.64364 -0.86499,3.12429 -0.47419,4.79765 0.30554,1.30897 0.86575,2.29644 1.91203,3.37214 1.34727,1.38424 2.82973,1.99251 4.87548,1.9997 1.72924,0.006 3.15409,-0.47829 4.53289,-1.54081 l 0.67299,-0.51855 0.59911,0.51784 c 0.46773,0.40444 0.6566,0.48638 0.8618,0.37466 0.42354,-0.23038 0.8982,-0.8115 0.99088,-1.21306 0.0712,-0.30902 -0.0149,-0.44711 -0.50925,-0.81343 -0.3275,-0.24262 -0.56428,-0.51061 -0.52607,-0.59571 0.88625,-1.98024 0.89748,-2.02936 0.89748,-3.96452 v -1.87309 l -0.62653,-1.27708 c -1.5914,-3.24149 -4.90371,-4.63534 -8.54708,-3.59632 -0.62777,0.17909 -1.81663,0.86471 -2.7977,1.61341 -0.10364,0.0789 -0.23554,0.0959 -0.29311,0.0379 -0.13162,-0.13281 0.11541,-0.63479 0.61917,-1.25715 l 0.38792,-0.48003 -0.44697,-0.45111 c -0.61368,-0.61948 -0.92252,-0.57402 -1.48651,0.21903 -0.26229,0.36872 -0.50382,0.67034 -0.53655,0.67034 -0.0327,0 -1.1411,-0.88818 -2.46258,-1.97371 -1.32147,-1.08553 -2.78456,-2.27441 -3.25132,-2.64193 -0.46653,-0.36751 -0.84472,-0.70267 -0.83994,-0.74486 0.007,-0.0683 5.53747,-4.5773 6.1631,-5.02488 0.21737,-0.15559 0.31623,-0.10337 0.68315,0.361 l 0.42923,0.54273 -0.5575,0.4865 -0.55751,0.4866 0.40012,0.52938 0.39982,0.52937 0.55781,-0.44595 c 0.30672,-0.24525 0.59023,-0.44595 0.62965,-0.44595 0.0397,0 0.25752,0.24581 0.48445,0.54596 l 0.41211,0.54566 -0.56375,0.4777 -0.56376,0.47781 0.41272,0.5224 0.41281,0.52219 1.54032,-1.26939 1.54002,-1.26949 -0.71399,-0.40581 c -0.39296,-0.22321 -1.12891,-0.63704 -1.63533,-0.91993 l -0.92136,-0.514 0.42894,-0.41501 0.42904,-0.4147 1.47341,0.83496 c 0.81052,0.4591 1.50568,0.83477 1.54486,0.83477 0.0392,0 -0.15791,-0.73983 -0.4381,-1.64364 l -0.50925,-1.64365 0.34229,-0.2879 c 0.18799,-0.15846 0.41466,-0.29011 0.50329,-0.29275 0.0886,-0.003 0.38225,0.73561 0.65243,1.64062 0.27016,0.905 0.53498,1.67288 0.58873,1.70644 0.15718,0.0983 3.02878,-2.32163 2.97838,-2.51006 -0.0253,-0.0942 -0.2033,-0.33305 -0.3956,-0.5306 -0.38005,-0.38981 -0.33226,-0.40204 -1.33053,0.34595 -0.12422,0.093 -0.32675,-0.0244 -0.64255,-0.37254 l -0.46128,-0.50824 0.58139,-0.52139 0.58149,-0.52119 -0.41856,-0.51451 -0.41805,-0.51421 -0.52285,0.40247 c -0.28761,0.22152 -0.5812,0.40277 -0.65262,0.40277 -0.14715,0 -0.77546,-0.81584 -0.77546,-1.00667 0,-0.0688 0.56713,-0.58013 1.26012,-1.13632 1.36518,-1.09584 1.39604,-1.17687 0.78259,-2.056219 -0.30886,-0.44308 -0.76112,-0.6481102 -1.04204,-0.4731 -0.10034,0.0628 -1.21322,0.959979 -2.47307,1.993729 -6.94944,5.70336 -10.97958,8.96617 -11.16089,9.03642 -0.17294,0.0669 -0.20444,-1.33492 -0.20444,-9.08324 V 2.7892268 l -0.46441,-0.16352 c -0.16375,-0.0575 -0.3217,-0.087 -0.48888,-0.0884 z m 15.70569,27.3310092 c 0.47666,0.002 0.99591,0.10259 1.53981,0.30801 0.9763,0.36872 2.06958,1.49831 2.69543,2.78522 0.37266,0.7662 0.41666,1.01311 0.41666,2.34605 0,1.22505 -0.0582,1.61707 -0.32819,2.2073 l -0.32828,0.71756 -0.57946,-0.47011 c -0.64904,-0.52647 -0.91515,-0.48236 -1.48249,0.24572 -0.43022,0.55188 -0.38272,0.93753 0.17291,1.40621 0.46653,0.39341 0.47231,0.41261 0.21361,0.70149 -0.14619,0.1635 -0.67753,0.48458 -1.18061,0.71352 -0.70301,0.32005 -1.18716,0.42695 -2.0949,0.46244 -1.29066,0.0503 -2.02687,-0.12878 -3.07268,-0.7473 -1.99464,-1.18023 -2.84341,-3.25484 -1.95646,-4.78269 0.64473,-1.11071 1.72425,-1.42675 2.86562,-0.83891 0.77301,0.3982 1.1184,1.09879 1.02523,2.07908 -0.0803,0.84603 -0.47107,1.41225 -1.18867,1.72343 l -0.40848,0.17737 0.58431,0.47396 c 0.32153,0.26083 0.69107,0.47426 0.8215,0.47426 0.13043,0 0.55107,-0.31842 0.93495,-0.70775 0.80622,-0.81727 1.123,-1.6628 0.98111,-2.61888 l -0.094,-0.631 0.59388,-0.024 c 1.01474,-0.041 2.04832,-0.73599 2.54328,-1.71029 0.38889,-0.76548 0.35929,-0.92446 -0.26944,-1.44757 -0.66527,-0.55355 -0.77776,-0.56642 -0.77776,-0.0903 0,0.20187 -0.20259,0.60006 -0.45029,0.88463 -0.88936,1.02272 -2.13576,1.05338 -3.10322,0.0765 -0.75819,-0.76501 -0.86931,-1.39772 -0.4102,-2.3327 0.44556,-0.90667 1.2881,-1.38463 2.33673,-1.38123 z m -31.5209981,0.004 c 1.51378,-0.003 2.602628,0.92565 2.602628,2.21903 0,1.18023 -0.978888,2.17373 -2.141748,2.17373 -0.85686,0 -1.78351,-0.6605 -2.0138,-1.43533 -0.0936,-0.3167 -0.20992,-0.57278 -0.25793,-0.56942 -0.048,0.003 -0.33782,0.22972 -0.64406,0.50278 -0.50667,0.45214 -0.54273,0.53366 -0.40204,0.90717 0.43333,1.15026 1.53627,2.07804 2.65493,2.23339 l 0.7295,0.10112 -0.0893,0.65689 c -0.12374,0.91245 0.25352,1.82923 1.06211,2.58177 0.359278,0.33443 0.741898,0.60774 0.850828,0.60774 0.10866,0 0.47085,-0.21201 0.8045601,-0.47093 l 0.60678,-0.47059 -0.57232,-0.28608 c -0.7230801,-0.36128 -1.2546701,-1.36478 -1.1309301,-2.1353 0.18059,-1.12317 1.0661201,-1.85074 2.2523901,-1.85074 0.61654,0 0.75872,0.0683 1.32127,0.63646 0.7281,0.73479 0.9431,1.57462 0.66744,2.60765 -0.33874,1.27037 -1.74145,2.61048 -3.3180301,3.16979 v -2.1e-4 c -0.93163,0.33084 -2.313978,0.36528 -3.348558,0.0838 -0.58621,-0.15943 -2.19577,-1.05598 -2.19577,-1.22308 0,-0.0314 0.24769,-0.28627 0.55035,-0.56628 l 0.55056,-0.50916 -0.24979,-0.52887 c -0.13735,-0.2908 -0.45457,-0.63555 -0.70491,-0.7662 -0.43788,-0.22871 -0.47209,-0.22318 -0.90232,0.14218 -0.2458,0.20905 -0.51192,0.37971 -0.59076,0.37971 -0.21546,0 -0.5398,-0.88461 -0.70581,-1.92507 -0.48589,-3.04633 1.8818,-6.26149 4.61481,-6.26605 z m 12.8715081,8.96733 c 0.49212,-1.6e-4 0.97507,0.17483 1.38072,0.55738 0.90677,0.85515 0.9077,2.33918 0.001,3.2159 -0.40466,0.3915 -0.557,0.44058 -1.36823,0.43938 -0.50213,-5.3e-4 -1.0289,-0.058 -1.17103,-0.12752 -0.22957,-0.11244 -0.25826,-0.0364 -0.25826,0.68521 v 0.81151 l 0.57051,0.17262 c 1.19392,0.36104 2.41144,0.10647 3.2339,-0.67651 0.28402,-0.27043 0.54443,-0.49156 0.57907,-0.49156 0.0344,0 0.22525,0.19521 0.424,0.43351 0.62968,0.75565 2.22635,1.11669 3.28648,0.74366 0.44552,-0.15679 0.46461,-0.19779 0.46461,-0.98413 0,-0.72688 -0.0294,-0.80748 -0.25794,-0.70391 -0.52768,0.23878 -1.61896,0.24217 -2.07093,0.006 -1.02645,-0.53581 -1.39289,-2.08403 -0.73,-3.08565 1.11245,-1.68104 3.68403,-1.08791 4.40735,1.01699 0.10634,0.30926 0.192,1.16559 0.19034,1.90302 -0.004,1.62446 -0.3929,2.62607 -1.47574,3.79503 -0.69776,0.75278 -2.14822,1.60167 -2.86652,1.67742 -0.34088,0.036 -0.37456,-0.0173 -0.44264,-0.70098 -0.0684,-0.68325 -0.11063,-0.75061 -0.55347,-0.87815 -0.29455,-0.0846 -0.66481,-0.0846 -0.95935,0 -0.43809,0.1261 -0.48352,0.19565 -0.52557,0.80362 -0.0256,0.36608 -0.092,0.71126 -0.1476,0.76712 -0.15743,0.15822 -1.55467,-0.39288 -2.28827,-0.90232 -1.81117,-1.25814 -2.70474,-3.71097 -2.17038,-5.95875 0.36482,-1.53597 1.58198,-2.51884 2.74754,-2.51916 z"
       style="display:inline;stroke-width:0.239307"
       id="path12" />
  </g>
</svg>
